<mxfile host="app.diagrams.net" modified="2022-05-23T08:31:37.502Z" agent="5.0 (Macintosh; Intel Mac OS X 10_15_7) AppleWebKit/605.1.15 (KHTML, like Gecko) Version/15.5 Safari/605.1.15" etag="gRVz6cat3cLb0rNhe0Yq" version="18.1.1" type="github">
  <diagram id="cb0CZBxO6Psnw6nOKla0" name="Page-1">
    <mxGraphModel dx="946" dy="648" grid="1" gridSize="10" guides="1" tooltips="1" connect="1" arrows="1" fold="1" page="1" pageScale="1" pageWidth="827" pageHeight="1169" math="1" shadow="0">
      <root>
        <mxCell id="0" />
        <mxCell id="1" parent="0" />
        <mxCell id="AkksG0kR0m9E42rnFNtQ-1" value="" style="triangle;whiteSpace=wrap;html=1;" vertex="1" parent="1">
          <mxGeometry x="120" y="40" width="30" height="40" as="geometry" />
        </mxCell>
        <mxCell id="AkksG0kR0m9E42rnFNtQ-2" value="" style="triangle;whiteSpace=wrap;html=1;" vertex="1" parent="1">
          <mxGeometry x="120" y="90" width="30" height="40" as="geometry" />
        </mxCell>
        <mxCell id="AkksG0kR0m9E42rnFNtQ-3" value="" style="triangle;whiteSpace=wrap;html=1;" vertex="1" parent="1">
          <mxGeometry x="120" y="210" width="30" height="40" as="geometry" />
        </mxCell>
        <mxCell id="AkksG0kR0m9E42rnFNtQ-5" value="$$\dots$$" style="text;strokeColor=none;fillColor=none;align=center;verticalAlign=middle;whiteSpace=wrap;rounded=0;fontFamily=Times New Roman;html=1;" vertex="1" parent="1">
          <mxGeometry x="380" y="260" width="60" height="30" as="geometry" />
        </mxCell>
      </root>
    </mxGraphModel>
  </diagram>
</mxfile>
